<?xml version="1.0" encoding="iso-8859-1"?>
<!-- Generator: Adobe Illustrator 16.0.0, SVG Export Plug-In . SVG Version: 6.00 Build 0)  -->
<!DOCTYPE svg PUBLIC "-//W3C//DTD SVG 1.1//EN" "http://www.w3.org/Graphics/SVG/1.1/DTD/svg11.dtd">
<svg version="1.1" id="Capa_1" xmlns="http://www.w3.org/2000/svg" xmlns:xlink="http://www.w3.org/1999/xlink" x="0px" y="0px"
	 width="410.758px" height="410.758px" viewBox="0 0 410.758 410.758" style="enable-background:new 0 0 410.758 410.758;"
	 xml:space="preserve">
<g>
	<path d="M350.604,60.153C311.812,21.362,260.237,0,205.379,0C150.521,0,98.945,21.362,60.154,60.153S0,150.52,0,205.378
		c0,54.858,21.363,106.437,60.154,145.227c38.79,38.791,90.366,60.153,145.225,60.153c54.859,0,106.435-21.362,145.225-60.153
		c38.791-38.79,60.154-90.366,60.154-145.227C410.758,150.521,389.395,98.944,350.604,60.153z M106.78,119.325
		c8.284,0,15,6.717,15,15c0,11.027,8.972,20,20,20c11.028,0,20-8.973,20-20c0-8.283,6.716-15,15-15c8.284,0,15,6.717,15,15
		c0,27.57-22.43,50-50,50c-27.57,0-50-22.43-50-50C91.78,126.042,98.496,119.325,106.78,119.325z M313.077,227.115
		c-0.203,0.807-5.146,19.959-20.854,39.033c-14.561,17.684-41.445,38.76-86.845,38.76c-45.399,0-72.284-21.076-86.845-38.76
		c-15.707-19.074-20.65-38.228-20.854-39.033c-0.751-2.988-0.083-6.156,1.812-8.588c1.896-2.431,4.805-3.852,7.887-3.852h196
		c3.082,0,5.991,1.421,7.887,3.852C313.16,220.959,313.828,224.127,313.077,227.115z M268.978,184.325
		c-27.569,0-49.999-22.43-49.999-50c0-8.283,6.715-15,15-15c8.283,0,15,6.717,15,15c0,11.027,8.972,20,19.999,20
		c11.028,0,20-8.973,20-20c0-8.283,6.717-15,15-15c8.284,0,15,6.717,15,15C318.978,161.896,296.548,184.325,268.978,184.325z"/>
</g>
<g>
</g>
<g>
</g>
<g>
</g>
<g>
</g>
<g>
</g>
<g>
</g>
<g>
</g>
<g>
</g>
<g>
</g>
<g>
</g>
<g>
</g>
<g>
</g>
<g>
</g>
<g>
</g>
<g>
</g>
</svg>
